<mxfile host="Electron" agent="Mozilla/5.0 (Windows NT 10.0; Win64; x64) AppleWebKit/537.36 (KHTML, like Gecko) draw.io/28.0.6 Chrome/138.0.7204.100 Electron/37.2.3 Safari/537.36" version="28.0.6">
  <diagram id="Y510HA3fxvAlY4W0fU_v" name="Page-1">
    <mxGraphModel dx="7230" dy="2580" grid="1" gridSize="10" guides="1" tooltips="1" connect="1" arrows="1" fold="1" page="1" pageScale="1" pageWidth="3300" pageHeight="4681" math="0" shadow="0">
      <root>
        <mxCell id="0" />
        <mxCell id="1" parent="0" />
        <mxCell id="_ncUiMCGVskBUBOPld8g-10" style="edgeStyle=orthogonalEdgeStyle;shape=link;rounded=0;orthogonalLoop=1;jettySize=auto;html=1;exitX=1;exitY=0.5;exitDx=0;exitDy=0;" parent="1" source="gt6wXpr9EtS7xhwxAVzs-2" target="_ncUiMCGVskBUBOPld8g-11" edge="1">
          <mxGeometry relative="1" as="geometry">
            <mxPoint x="530" y="2485" as="targetPoint" />
          </mxGeometry>
        </mxCell>
        <mxCell id="gt6wXpr9EtS7xhwxAVzs-2" value="&lt;font style=&quot;font-size: 36px;&quot;&gt;&lt;b style=&quot;&quot;&gt;Intake&lt;/b&gt;&lt;/font&gt;" style="rounded=0;whiteSpace=wrap;html=1;strokeWidth=1;fillColor=light-dark(#00dae3, #56aeff);strokeColor=#6c8ebf;" parent="1" vertex="1">
          <mxGeometry x="-220" y="2443.82" width="263" height="110" as="geometry" />
        </mxCell>
        <mxCell id="-V-z7xhwJEZhr13rw5rR-14" style="edgeStyle=orthogonalEdgeStyle;shape=link;rounded=0;orthogonalLoop=1;jettySize=auto;html=1;exitX=0.5;exitY=1;exitDx=0;exitDy=0;entryX=0.5;entryY=0;entryDx=0;entryDy=0;" parent="1" source="ghEDMHf0rRgoG01HlY_2-8" target="gt6wXpr9EtS7xhwxAVzs-5" edge="1">
          <mxGeometry relative="1" as="geometry" />
        </mxCell>
        <mxCell id="mWAadBHBOM-9umkQthMp-6" style="edgeStyle=orthogonalEdgeStyle;shape=link;rounded=0;orthogonalLoop=1;jettySize=auto;html=1;exitX=0;exitY=0.5;exitDx=0;exitDy=0;entryX=1;entryY=0.5;entryDx=0;entryDy=0;" parent="1" source="ghEDMHf0rRgoG01HlY_2-6" target="-sQpzmOSKnh0VmdjPz6c-3" edge="1">
          <mxGeometry relative="1" as="geometry" />
        </mxCell>
        <mxCell id="Lcuv7gyLhMzve4SIssHN-19" style="edgeStyle=orthogonalEdgeStyle;shape=link;rounded=0;orthogonalLoop=1;jettySize=auto;html=1;exitX=1;exitY=0.5;exitDx=0;exitDy=0;" parent="1" source="Lcuv7gyLhMzve4SIssHN-20" target="gt6wXpr9EtS7xhwxAVzs-6" edge="1">
          <mxGeometry relative="1" as="geometry" />
        </mxCell>
        <mxCell id="gt6wXpr9EtS7xhwxAVzs-4" value="&lt;b style=&quot;&quot;&gt;&lt;font style=&quot;font-size: 36px;&quot;&gt;Instructor&lt;/font&gt;&lt;/b&gt;" style="rounded=0;whiteSpace=wrap;html=1;strokeWidth=1;fillColor=light-dark(#00dae3, #56aeff);strokeColor=#6c8ebf;" parent="1" vertex="1">
          <mxGeometry x="1340" y="1240" width="293" height="110" as="geometry" />
        </mxCell>
        <mxCell id="mWAadBHBOM-9umkQthMp-2" style="edgeStyle=orthogonalEdgeStyle;shape=link;rounded=0;orthogonalLoop=1;jettySize=auto;html=1;exitX=1;exitY=0.5;exitDx=0;exitDy=0;entryX=0;entryY=0.5;entryDx=0;entryDy=0;" parent="1" source="Lcuv7gyLhMzve4SIssHN-22" target="-sQpzmOSKnh0VmdjPz6c-1" edge="1">
          <mxGeometry relative="1" as="geometry" />
        </mxCell>
        <mxCell id="gt6wXpr9EtS7xhwxAVzs-5" value="&lt;b style=&quot;&quot;&gt;&lt;font style=&quot;font-size: 36px;&quot;&gt;Course&lt;/font&gt;&lt;/b&gt;" style="rounded=0;whiteSpace=wrap;html=1;strokeWidth=1;fillColor=light-dark(#00dae3, #56aeff);strokeColor=#6c8ebf;" parent="1" vertex="1">
          <mxGeometry x="1353.5" y="2000" width="266" height="110" as="geometry" />
        </mxCell>
        <mxCell id="-V-z7xhwJEZhr13rw5rR-25" style="edgeStyle=orthogonalEdgeStyle;shape=link;rounded=0;orthogonalLoop=1;jettySize=auto;html=1;exitX=0.5;exitY=1;exitDx=0;exitDy=0;" parent="1" source="gt6wXpr9EtS7xhwxAVzs-6" target="-V-z7xhwJEZhr13rw5rR-24" edge="1">
          <mxGeometry relative="1" as="geometry" />
        </mxCell>
        <mxCell id="YkqHJXQgq8Sw7DReT307-6" style="edgeStyle=orthogonalEdgeStyle;shape=link;rounded=0;orthogonalLoop=1;jettySize=auto;html=1;exitX=0.25;exitY=1;exitDx=0;exitDy=0;entryX=1;entryY=0.5;entryDx=0;entryDy=0;" parent="1" source="gt6wXpr9EtS7xhwxAVzs-6" target="YkqHJXQgq8Sw7DReT307-4" edge="1">
          <mxGeometry relative="1" as="geometry" />
        </mxCell>
        <mxCell id="gt6wXpr9EtS7xhwxAVzs-6" value="&lt;font style=&quot;font-size: 36px;&quot;&gt;&lt;b style=&quot;&quot;&gt;Exam&lt;/b&gt;&lt;/font&gt;" style="rounded=0;whiteSpace=wrap;html=1;strokeWidth=1;fillColor=light-dark(#00dae3, #56aeff);strokeColor=#6c8ebf;" parent="1" vertex="1">
          <mxGeometry x="3370" y="1735.32" width="276" height="100" as="geometry" />
        </mxCell>
        <mxCell id="YkqHJXQgq8Sw7DReT307-2" style="edgeStyle=orthogonalEdgeStyle;shape=link;rounded=0;orthogonalLoop=1;jettySize=auto;html=1;exitX=0.5;exitY=1;exitDx=0;exitDy=0;entryX=0;entryY=0.5;entryDx=0;entryDy=0;" parent="1" source="YkqHJXQgq8Sw7DReT307-4" target="-V-z7xhwJEZhr13rw5rR-24" edge="1">
          <mxGeometry relative="1" as="geometry" />
        </mxCell>
        <mxCell id="ghEDMHf0rRgoG01HlY_2-20" style="edgeStyle=orthogonalEdgeStyle;shape=link;rounded=0;orthogonalLoop=1;jettySize=auto;html=1;exitX=0.5;exitY=0;exitDx=0;exitDy=0;entryX=0.5;entryY=1;entryDx=0;entryDy=0;" parent="1" source="-sQpzmOSKnh0VmdjPz6c-1" target="ghEDMHf0rRgoG01HlY_2-15" edge="1">
          <mxGeometry relative="1" as="geometry" />
        </mxCell>
        <mxCell id="-sQpzmOSKnh0VmdjPz6c-1" value="&lt;font style=&quot;font-size: 36px;&quot;&gt;&lt;b style=&quot;&quot;&gt;Question&lt;/b&gt;&lt;/font&gt;" style="rounded=0;whiteSpace=wrap;html=1;strokeWidth=1;fillColor=light-dark(#00dae3, #56aeff);strokeColor=#6c8ebf;" parent="1" vertex="1">
          <mxGeometry x="2200" y="2000" width="293" height="110" as="geometry" />
        </mxCell>
        <mxCell id="-sQpzmOSKnh0VmdjPz6c-2" value="&lt;font style=&quot;font-size: 36px;&quot;&gt;&lt;b style=&quot;&quot;&gt;Choice&lt;/b&gt;&lt;/font&gt;" style="rounded=0;whiteSpace=wrap;html=1;strokeWidth=1;fillColor=light-dark(#00dae3, #56aeff);strokeColor=#6c8ebf;" parent="1" vertex="1">
          <mxGeometry x="1961.75" y="3339" width="263" height="100" as="geometry" />
        </mxCell>
        <mxCell id="_ncUiMCGVskBUBOPld8g-5" style="edgeStyle=orthogonalEdgeStyle;shape=link;rounded=0;orthogonalLoop=1;jettySize=auto;html=1;exitX=0.5;exitY=1;exitDx=0;exitDy=0;entryX=0.5;entryY=0;entryDx=0;entryDy=0;" parent="1" source="ghEDMHf0rRgoG01HlY_2-3" target="_ncUiMCGVskBUBOPld8g-2" edge="1">
          <mxGeometry relative="1" as="geometry" />
        </mxCell>
        <mxCell id="-sQpzmOSKnh0VmdjPz6c-3" value="&lt;b style=&quot;&quot;&gt;&lt;font style=&quot;font-size: 36px;&quot;&gt;Department&lt;/font&gt;&lt;/b&gt;" style="rounded=0;whiteSpace=wrap;html=1;strokeWidth=1;fillColor=light-dark(#00dae3, #56aeff);strokeColor=#6c8ebf;" parent="1" vertex="1">
          <mxGeometry x="400" y="1245" width="260" height="100" as="geometry" />
        </mxCell>
        <mxCell id="Lcuv7gyLhMzve4SIssHN-10" style="edgeStyle=orthogonalEdgeStyle;shape=link;rounded=0;orthogonalLoop=1;jettySize=auto;html=1;exitX=0.5;exitY=1;exitDx=0;exitDy=0;entryX=1;entryY=0.5;entryDx=0;entryDy=0;" parent="1" source="-V-z7xhwJEZhr13rw5rR-24" target="Lcuv7gyLhMzve4SIssHN-1" edge="1">
          <mxGeometry relative="1" as="geometry" />
        </mxCell>
        <mxCell id="-V-z7xhwJEZhr13rw5rR-24" value="&lt;font style=&quot;font-size: 36px;&quot;&gt;&lt;b style=&quot;&quot;&gt;Student&lt;/b&gt;&lt;/font&gt;" style="rounded=0;whiteSpace=wrap;html=1;strokeWidth=1;fillColor=light-dark(#00dae3, #56aeff);strokeColor=#6c8ebf;" parent="1" vertex="1">
          <mxGeometry x="3370" y="3142.32" width="276" height="100" as="geometry" />
        </mxCell>
        <mxCell id="YkqHJXQgq8Sw7DReT307-7" style="edgeStyle=orthogonalEdgeStyle;shape=link;rounded=0;orthogonalLoop=1;jettySize=auto;html=1;entryX=0.5;entryY=1;entryDx=0;entryDy=0;" parent="1" source="YkqHJXQgq8Sw7DReT307-4" target="-sQpzmOSKnh0VmdjPz6c-1" edge="1">
          <mxGeometry relative="1" as="geometry" />
        </mxCell>
        <mxCell id="YkqHJXQgq8Sw7DReT307-4" value="&lt;font style=&quot;font-size: 47px;&quot;&gt;do&lt;/font&gt;" style="rhombus;whiteSpace=wrap;html=1;fillColor=light-dark(#e0d9fb, #ededed);" parent="1" vertex="1">
          <mxGeometry x="2240" y="2600" width="210" height="170" as="geometry" />
        </mxCell>
        <mxCell id="_ncUiMCGVskBUBOPld8g-4" style="edgeStyle=orthogonalEdgeStyle;shape=link;rounded=0;orthogonalLoop=1;jettySize=auto;html=1;exitX=1;exitY=0.5;exitDx=0;exitDy=0;entryX=0;entryY=0.5;entryDx=0;entryDy=0;" parent="1" source="ghEDMHf0rRgoG01HlY_2-1" target="gt6wXpr9EtS7xhwxAVzs-5" edge="1">
          <mxGeometry relative="1" as="geometry" />
        </mxCell>
        <mxCell id="_ncUiMCGVskBUBOPld8g-7" style="edgeStyle=orthogonalEdgeStyle;shape=link;rounded=0;orthogonalLoop=1;jettySize=auto;html=1;exitX=0.5;exitY=1;exitDx=0;exitDy=0;entryX=0.5;entryY=0;entryDx=0;entryDy=0;" parent="1" source="_ncUiMCGVskBUBOPld8g-11" target="_ncUiMCGVskBUBOPld8g-6" edge="1">
          <mxGeometry relative="1" as="geometry" />
        </mxCell>
        <mxCell id="_ncUiMCGVskBUBOPld8g-21" style="edgeStyle=orthogonalEdgeStyle;shape=link;rounded=0;orthogonalLoop=1;jettySize=auto;html=1;exitX=0.25;exitY=1;exitDx=0;exitDy=0;entryX=0.5;entryY=0;entryDx=0;entryDy=0;" parent="1" source="_ncUiMCGVskBUBOPld8g-2" target="_ncUiMCGVskBUBOPld8g-11" edge="1">
          <mxGeometry relative="1" as="geometry">
            <mxPoint x="465.54545454545405" y="2400" as="targetPoint" />
          </mxGeometry>
        </mxCell>
        <mxCell id="Lcuv7gyLhMzve4SIssHN-9" style="edgeStyle=orthogonalEdgeStyle;shape=link;rounded=0;orthogonalLoop=1;jettySize=auto;html=1;exitX=1;exitY=1;exitDx=0;exitDy=0;entryX=0;entryY=0.5;entryDx=0;entryDy=0;" parent="1" source="_ncUiMCGVskBUBOPld8g-2" target="Lcuv7gyLhMzve4SIssHN-1" edge="1">
          <mxGeometry relative="1" as="geometry" />
        </mxCell>
        <mxCell id="_ncUiMCGVskBUBOPld8g-2" value="&lt;b style=&quot;&quot;&gt;&lt;font style=&quot;font-size: 36px;&quot;&gt;Track&lt;/font&gt;&lt;/b&gt;" style="rounded=0;whiteSpace=wrap;html=1;strokeWidth=1;fillColor=light-dark(#00dae3, #56aeff);strokeColor=#6c8ebf;" parent="1" vertex="1">
          <mxGeometry x="400" y="2005" width="260" height="100" as="geometry" />
        </mxCell>
        <mxCell id="_ncUiMCGVskBUBOPld8g-6" value="&lt;b style=&quot;&quot;&gt;&lt;font style=&quot;font-size: 36px;&quot;&gt;Branch&lt;/font&gt;&lt;/b&gt;" style="rounded=0;whiteSpace=wrap;html=1;strokeWidth=1;fillColor=light-dark(#00dae3, #56aeff);strokeColor=#6c8ebf;" parent="1" vertex="1">
          <mxGeometry x="335" y="2890" width="260" height="100" as="geometry" />
        </mxCell>
        <mxCell id="_ncUiMCGVskBUBOPld8g-11" value="&lt;font style=&quot;font-size: 43px;&quot;&gt;has&lt;/font&gt;" style="rhombus;whiteSpace=wrap;html=1;fillColor=light-dark(#e0d9fb, #ededed);strokeWidth=1;perimeterSpacing=0;" parent="1" vertex="1">
          <mxGeometry x="370" y="2397.63" width="190" height="202.37" as="geometry" />
        </mxCell>
        <mxCell id="ghEDMHf0rRgoG01HlY_2-2" value="" style="edgeStyle=orthogonalEdgeStyle;shape=link;rounded=0;orthogonalLoop=1;jettySize=auto;html=1;exitX=1;exitY=0.5;exitDx=0;exitDy=0;entryX=0;entryY=0.5;entryDx=0;entryDy=0;" parent="1" source="_ncUiMCGVskBUBOPld8g-2" target="ghEDMHf0rRgoG01HlY_2-1" edge="1">
          <mxGeometry relative="1" as="geometry">
            <mxPoint x="660" y="2055" as="sourcePoint" />
            <mxPoint x="1353" y="2055" as="targetPoint" />
          </mxGeometry>
        </mxCell>
        <mxCell id="ghEDMHf0rRgoG01HlY_2-1" value="&lt;font style=&quot;font-size: 42px;&quot;&gt;cotain&lt;/font&gt;" style="rhombus;whiteSpace=wrap;html=1;fillColor=light-dark(#e0d9fb, #ededed);strokeWidth=1;perimeterSpacing=0;" parent="1" vertex="1">
          <mxGeometry x="900" y="1976.9099999999999" width="220" height="156.18" as="geometry" />
        </mxCell>
        <mxCell id="ghEDMHf0rRgoG01HlY_2-4" value="" style="edgeStyle=orthogonalEdgeStyle;shape=link;rounded=0;orthogonalLoop=1;jettySize=auto;html=1;exitX=0.5;exitY=1;exitDx=0;exitDy=0;entryX=0.5;entryY=0;entryDx=0;entryDy=0;" parent="1" source="-sQpzmOSKnh0VmdjPz6c-3" target="ghEDMHf0rRgoG01HlY_2-3" edge="1">
          <mxGeometry relative="1" as="geometry">
            <mxPoint x="530" y="1345" as="sourcePoint" />
            <mxPoint x="530" y="2005" as="targetPoint" />
          </mxGeometry>
        </mxCell>
        <mxCell id="ghEDMHf0rRgoG01HlY_2-3" value="&lt;font style=&quot;font-size: 39px;&quot;&gt;contain&lt;/font&gt;" style="rhombus;whiteSpace=wrap;html=1;fillColor=light-dark(#e0d9fb, #ededed);strokeWidth=1;perimeterSpacing=0;" parent="1" vertex="1">
          <mxGeometry x="437.5" y="1584.95" width="185" height="150.37" as="geometry" />
        </mxCell>
        <mxCell id="ghEDMHf0rRgoG01HlY_2-7" value="" style="edgeStyle=orthogonalEdgeStyle;shape=link;rounded=0;orthogonalLoop=1;jettySize=auto;html=1;exitX=0;exitY=0.5;exitDx=0;exitDy=0;entryX=1;entryY=0.5;entryDx=0;entryDy=0;" parent="1" source="gt6wXpr9EtS7xhwxAVzs-4" target="ghEDMHf0rRgoG01HlY_2-6" edge="1">
          <mxGeometry relative="1" as="geometry">
            <mxPoint x="1340" y="1295" as="sourcePoint" />
            <mxPoint x="660" y="1295" as="targetPoint" />
          </mxGeometry>
        </mxCell>
        <mxCell id="ghEDMHf0rRgoG01HlY_2-6" value="&lt;font style=&quot;font-size: 41px;&quot;&gt;work&lt;/font&gt;" style="rhombus;whiteSpace=wrap;html=1;fillColor=light-dark(#e0d9fb, #ededed);strokeWidth=1;perimeterSpacing=0;" parent="1" vertex="1">
          <mxGeometry x="900" y="1223.82" width="170" height="142.37" as="geometry" />
        </mxCell>
        <mxCell id="ghEDMHf0rRgoG01HlY_2-9" value="" style="edgeStyle=orthogonalEdgeStyle;shape=link;rounded=0;orthogonalLoop=1;jettySize=auto;html=1;exitX=0.5;exitY=1;exitDx=0;exitDy=0;entryX=0.5;entryY=0;entryDx=0;entryDy=0;" parent="1" source="gt6wXpr9EtS7xhwxAVzs-4" target="ghEDMHf0rRgoG01HlY_2-8" edge="1">
          <mxGeometry relative="1" as="geometry">
            <mxPoint x="1487" y="1350" as="sourcePoint" />
            <mxPoint x="1487" y="2000" as="targetPoint" />
          </mxGeometry>
        </mxCell>
        <mxCell id="ghEDMHf0rRgoG01HlY_2-8" value="&lt;font style=&quot;font-size: 41px;&quot;&gt;teach&lt;/font&gt;" style="rhombus;whiteSpace=wrap;html=1;fillColor=light-dark(#e0d9fb, #ededed);strokeWidth=1;perimeterSpacing=0;" parent="1" vertex="1">
          <mxGeometry x="1401.5" y="1520" width="170" height="142.37" as="geometry" />
        </mxCell>
        <mxCell id="ghEDMHf0rRgoG01HlY_2-13" value="" style="edgeStyle=orthogonalEdgeStyle;shape=link;rounded=0;orthogonalLoop=1;jettySize=auto;html=1;exitX=0.75;exitY=0;exitDx=0;exitDy=0;entryX=0;entryY=0.5;entryDx=0;entryDy=0;" parent="1" source="gt6wXpr9EtS7xhwxAVzs-5" target="ghEDMHf0rRgoG01HlY_2-10" edge="1">
          <mxGeometry relative="1" as="geometry">
            <mxPoint x="1553" y="2000" as="sourcePoint" />
            <mxPoint x="2910" y="1782" as="targetPoint" />
          </mxGeometry>
        </mxCell>
        <mxCell id="ghEDMHf0rRgoG01HlY_2-14" style="edgeStyle=orthogonalEdgeStyle;shape=link;rounded=0;orthogonalLoop=1;jettySize=auto;html=1;exitX=1;exitY=0.5;exitDx=0;exitDy=0;entryX=0;entryY=0.5;entryDx=0;entryDy=0;" parent="1" source="ghEDMHf0rRgoG01HlY_2-10" target="gt6wXpr9EtS7xhwxAVzs-6" edge="1">
          <mxGeometry relative="1" as="geometry" />
        </mxCell>
        <mxCell id="ghEDMHf0rRgoG01HlY_2-10" value="&lt;font style=&quot;font-size: 42px;&quot;&gt;has&lt;/font&gt;" style="rhombus;whiteSpace=wrap;html=1;fillColor=light-dark(#e0d9fb, #ededed);strokeWidth=1;perimeterSpacing=0;" parent="1" vertex="1">
          <mxGeometry x="1961.75" y="1714.1299999999999" width="170" height="142.37" as="geometry" />
        </mxCell>
        <mxCell id="ghEDMHf0rRgoG01HlY_2-16" value="" style="edgeStyle=orthogonalEdgeStyle;shape=link;rounded=0;orthogonalLoop=1;jettySize=auto;html=1;exitX=1;exitY=0.75;exitDx=0;exitDy=0;entryX=0.5;entryY=0;entryDx=0;entryDy=0;" parent="1" source="gt6wXpr9EtS7xhwxAVzs-4" target="ghEDMHf0rRgoG01HlY_2-15" edge="1">
          <mxGeometry relative="1" as="geometry">
            <mxPoint x="1633" y="1323" as="sourcePoint" />
            <mxPoint x="2347" y="2000" as="targetPoint" />
          </mxGeometry>
        </mxCell>
        <mxCell id="ghEDMHf0rRgoG01HlY_2-15" value="&lt;font style=&quot;font-size: 41px;&quot;&gt;choose&lt;/font&gt;" style="rhombus;whiteSpace=wrap;html=1;fillColor=light-dark(#e0d9fb, #ededed);strokeWidth=1;perimeterSpacing=0;" parent="1" vertex="1">
          <mxGeometry x="2254.68" y="1480" width="183.63" height="142.37" as="geometry" />
        </mxCell>
        <mxCell id="Lcuv7gyLhMzve4SIssHN-1" value="&lt;font style=&quot;font-size: 41px;&quot;&gt;register&lt;/font&gt;" style="rhombus;whiteSpace=wrap;html=1;fillColor=light-dark(#e0d9fb, #ededed);" parent="1" vertex="1">
          <mxGeometry x="2006.5" y="4080" width="210" height="170" as="geometry" />
        </mxCell>
        <mxCell id="Lcuv7gyLhMzve4SIssHN-21" value="" style="edgeStyle=orthogonalEdgeStyle;shape=link;rounded=0;orthogonalLoop=1;jettySize=auto;html=1;exitX=1;exitY=0.25;exitDx=0;exitDy=0;" parent="1" source="gt6wXpr9EtS7xhwxAVzs-4" target="Lcuv7gyLhMzve4SIssHN-20" edge="1">
          <mxGeometry relative="1" as="geometry">
            <mxPoint x="1633" y="1268" as="sourcePoint" />
            <mxPoint x="3508" y="1735" as="targetPoint" />
          </mxGeometry>
        </mxCell>
        <mxCell id="Lcuv7gyLhMzve4SIssHN-20" value="&lt;font style=&quot;font-size: 42px;&quot;&gt;put&lt;/font&gt;" style="rhombus;whiteSpace=wrap;html=1;fillColor=light-dark(#e0d9fb, #ededed);" parent="1" vertex="1">
          <mxGeometry x="2670" y="1199" width="160" height="130" as="geometry" />
        </mxCell>
        <mxCell id="Lcuv7gyLhMzve4SIssHN-23" value="" style="edgeStyle=orthogonalEdgeStyle;shape=link;rounded=0;orthogonalLoop=1;jettySize=auto;html=1;exitX=1;exitY=0.5;exitDx=0;exitDy=0;entryX=0;entryY=0.5;entryDx=0;entryDy=0;" parent="1" source="gt6wXpr9EtS7xhwxAVzs-5" target="Lcuv7gyLhMzve4SIssHN-22" edge="1">
          <mxGeometry relative="1" as="geometry">
            <mxPoint x="1620" y="2055" as="sourcePoint" />
            <mxPoint x="2200" y="2055" as="targetPoint" />
          </mxGeometry>
        </mxCell>
        <mxCell id="Lcuv7gyLhMzve4SIssHN-22" value="&lt;font style=&quot;font-size: 42px;&quot;&gt;has&lt;/font&gt;" style="rhombus;whiteSpace=wrap;html=1;fillColor=light-dark(#e0d9fb, #ededed);" parent="1" vertex="1">
          <mxGeometry x="1820" y="1983.82" width="170" height="140" as="geometry" />
        </mxCell>
        <mxCell id="Lcuv7gyLhMzve4SIssHN-25" value="" style="edgeStyle=orthogonalEdgeStyle;shape=link;rounded=0;orthogonalLoop=1;jettySize=auto;html=1;exitX=0;exitY=0.75;exitDx=0;exitDy=0;entryX=0.5;entryY=0;entryDx=0;entryDy=0;" parent="1" source="-sQpzmOSKnh0VmdjPz6c-1" target="Lcuv7gyLhMzve4SIssHN-24" edge="1">
          <mxGeometry relative="1" as="geometry">
            <mxPoint x="2200" y="2083" as="sourcePoint" />
            <mxPoint x="2112" y="3329" as="targetPoint" />
          </mxGeometry>
        </mxCell>
        <mxCell id="Lcuv7gyLhMzve4SIssHN-26" style="edgeStyle=orthogonalEdgeStyle;shape=link;rounded=0;orthogonalLoop=1;jettySize=auto;html=1;exitX=0.5;exitY=1;exitDx=0;exitDy=0;entryX=0.5;entryY=0;entryDx=0;entryDy=0;" parent="1" source="Lcuv7gyLhMzve4SIssHN-24" target="-sQpzmOSKnh0VmdjPz6c-2" edge="1">
          <mxGeometry relative="1" as="geometry" />
        </mxCell>
        <mxCell id="Lcuv7gyLhMzve4SIssHN-24" value="&lt;font style=&quot;font-size: 47px;&quot;&gt;has&lt;/font&gt;" style="rhombus;whiteSpace=wrap;html=1;fillColor=light-dark(#e0d9fb, #ededed);" parent="1" vertex="1">
          <mxGeometry x="1990" y="2410" width="206.5" height="220" as="geometry" />
        </mxCell>
        <mxCell id="Lcuv7gyLhMzve4SIssHN-31" value="" style="endArrow=none;html=1;rounded=0;exitX=0.75;exitY=0;exitDx=0;exitDy=0;entryX=0.5;entryY=1;entryDx=0;entryDy=0;" parent="1" source="-V-z7xhwJEZhr13rw5rR-24" target="11X91SY8pe6WJFM1M_jt-32" edge="1">
          <mxGeometry width="50" height="50" relative="1" as="geometry">
            <mxPoint x="3610" y="3080" as="sourcePoint" />
            <mxPoint x="3660" y="2930" as="targetPoint" />
          </mxGeometry>
        </mxCell>
        <mxCell id="Lcuv7gyLhMzve4SIssHN-33" value="" style="endArrow=none;html=1;rounded=0;exitX=0.622;exitY=0.01;exitDx=0;exitDy=0;exitPerimeter=0;entryX=0.5;entryY=1;entryDx=0;entryDy=0;" parent="1" source="-V-z7xhwJEZhr13rw5rR-24" target="11X91SY8pe6WJFM1M_jt-17" edge="1">
          <mxGeometry width="50" height="50" relative="1" as="geometry">
            <mxPoint x="3550" y="3030" as="sourcePoint" />
            <mxPoint x="3540" y="2900" as="targetPoint" />
          </mxGeometry>
        </mxCell>
        <mxCell id="11X91SY8pe6WJFM1M_jt-2" value="&lt;font style=&quot;font-size: 25px;&quot;&gt;&lt;u style=&quot;&quot;&gt;&lt;b style=&quot;&quot;&gt;stud_id&lt;/b&gt;&lt;/u&gt;&lt;/font&gt;" style="ellipse;whiteSpace=wrap;html=1;strokeWidth=1;perimeterSpacing=1;fillColor=light-dark(#baf4f5, #ededed);" parent="1" vertex="1">
          <mxGeometry x="3800" y="3210" width="133.5" height="61.5" as="geometry" />
        </mxCell>
        <mxCell id="11X91SY8pe6WJFM1M_jt-9" value="&lt;font style=&quot;font-size: 29px;&quot;&gt;b_date&lt;/font&gt;" style="ellipse;whiteSpace=wrap;html=1;strokeWidth=1;perimeterSpacing=1;fillColor=light-dark(#baf4f5, #ededed);" parent="1" vertex="1">
          <mxGeometry x="3703.5" y="3369" width="120" height="60" as="geometry" />
        </mxCell>
        <mxCell id="11X91SY8pe6WJFM1M_jt-10" value="&lt;font style=&quot;font-size: 23px;&quot;&gt;grad_year&lt;/font&gt;" style="ellipse;whiteSpace=wrap;html=1;strokeWidth=1;perimeterSpacing=1;fillColor=light-dark(#baf4f5, #ededed);" parent="1" vertex="1">
          <mxGeometry x="3777.5" y="3290" width="126.5" height="70.32" as="geometry" />
        </mxCell>
        <mxCell id="11X91SY8pe6WJFM1M_jt-13" value="&lt;font style=&quot;font-size: 26px;&quot;&gt;gender&lt;/font&gt;" style="ellipse;whiteSpace=wrap;html=1;strokeWidth=1;perimeterSpacing=1;rotation=0;fillColor=light-dark(#baf4f5, #ededed);" parent="1" vertex="1">
          <mxGeometry x="3610" y="3429" width="131.5" height="62.5" as="geometry" />
        </mxCell>
        <mxCell id="11X91SY8pe6WJFM1M_jt-14" value="&lt;font style=&quot;font-size: 25px;&quot;&gt;phone&lt;/font&gt;" style="ellipse;whiteSpace=wrap;html=1;strokeWidth=1;perimeterSpacing=1;fillColor=light-dark(#baf4f5, #ededed);" parent="1" vertex="1">
          <mxGeometry x="3511.5" y="3380" width="108.5" height="59" as="geometry" />
        </mxCell>
        <mxCell id="11X91SY8pe6WJFM1M_jt-17" value="&lt;font style=&quot;font-size: 22px;&quot;&gt;user_name&lt;/font&gt;" style="ellipse;whiteSpace=wrap;html=1;fillColor=light-dark(#baf4f5, #ededed);" parent="1" vertex="1">
          <mxGeometry x="3490" y="2920" width="120" height="80" as="geometry" />
        </mxCell>
        <mxCell id="11X91SY8pe6WJFM1M_jt-32" value="&lt;font style=&quot;font-size: 30px;&quot;&gt;ssn&lt;/font&gt;" style="ellipse;whiteSpace=wrap;html=1;fillColor=light-dark(#baf4f5, #ededed);" parent="1" vertex="1">
          <mxGeometry x="3620" y="2920" width="90" height="80" as="geometry" />
        </mxCell>
        <mxCell id="11X91SY8pe6WJFM1M_jt-33" value="&lt;font style=&quot;font-size: 24px;&quot;&gt;password&lt;/font&gt;" style="ellipse;whiteSpace=wrap;html=1;fillColor=light-dark(#baf4f5, #ededed);" parent="1" vertex="1">
          <mxGeometry x="3720" y="2930" width="120" height="80" as="geometry" />
        </mxCell>
        <mxCell id="_KUafuUYz9c5BTiGu38G-1" value="&lt;font style=&quot;font-size: 23px;&quot;&gt;stud_name&lt;/font&gt;" style="ellipse;whiteSpace=wrap;html=1;fillColor=light-dark(#baf4f5, #ededed);" parent="1" vertex="1">
          <mxGeometry x="3810" y="3010" width="120" height="80" as="geometry" />
        </mxCell>
        <mxCell id="_KUafuUYz9c5BTiGu38G-2" value="" style="endArrow=none;html=1;rounded=0;exitX=1;exitY=0.25;exitDx=0;exitDy=0;entryX=0;entryY=1;entryDx=0;entryDy=0;" parent="1" source="-V-z7xhwJEZhr13rw5rR-24" target="_KUafuUYz9c5BTiGu38G-1" edge="1">
          <mxGeometry width="50" height="50" relative="1" as="geometry">
            <mxPoint x="3820" y="2880" as="sourcePoint" />
            <mxPoint x="3870" y="2830" as="targetPoint" />
          </mxGeometry>
        </mxCell>
        <mxCell id="L6hsn2K8NmfEs2gSqm9i-3" value="" style="endArrow=none;html=1;rounded=0;exitX=1;exitY=0;exitDx=0;exitDy=0;entryX=0.5;entryY=1;entryDx=0;entryDy=0;" parent="1" source="_KUafuUYz9c5BTiGu38G-1" target="L6hsn2K8NmfEs2gSqm9i-6" edge="1">
          <mxGeometry width="50" height="50" relative="1" as="geometry">
            <mxPoint x="3940" y="3125" as="sourcePoint" />
            <mxPoint x="4010" y="2890" as="targetPoint" />
          </mxGeometry>
        </mxCell>
        <mxCell id="L6hsn2K8NmfEs2gSqm9i-5" value="" style="endArrow=none;html=1;rounded=0;exitX=1;exitY=0;exitDx=0;exitDy=0;" parent="1" source="_KUafuUYz9c5BTiGu38G-1" target="L6hsn2K8NmfEs2gSqm9i-4" edge="1">
          <mxGeometry width="50" height="50" relative="1" as="geometry">
            <mxPoint x="3902" y="2975" as="sourcePoint" />
            <mxPoint x="3890" y="2850" as="targetPoint" />
          </mxGeometry>
        </mxCell>
        <mxCell id="L6hsn2K8NmfEs2gSqm9i-4" value="&lt;font style=&quot;font-size: 23px;&quot;&gt;Lname&lt;/font&gt;" style="ellipse;whiteSpace=wrap;html=1;fillColor=light-dark(#baf4f5, #ededed);" parent="1" vertex="1">
          <mxGeometry x="3830" y="2870" width="120" height="80" as="geometry" />
        </mxCell>
        <mxCell id="L6hsn2K8NmfEs2gSqm9i-6" value="&lt;font style=&quot;font-size: 23px;&quot;&gt;Fname&lt;/font&gt;" style="ellipse;whiteSpace=wrap;html=1;fillColor=light-dark(#baf4f5, #ededed);" parent="1" vertex="1">
          <mxGeometry x="3960" y="2900" width="120" height="80" as="geometry" />
        </mxCell>
        <mxCell id="L6hsn2K8NmfEs2gSqm9i-12" value="" style="endArrow=none;html=1;rounded=0;exitX=1;exitY=0.5;exitDx=0;exitDy=0;entryX=0;entryY=1;entryDx=0;entryDy=0;" parent="1" source="-V-z7xhwJEZhr13rw5rR-24" target="L6hsn2K8NmfEs2gSqm9i-13" edge="1">
          <mxGeometry width="50" height="50" relative="1" as="geometry">
            <mxPoint x="3690" y="3191.07" as="sourcePoint" />
            <mxPoint x="3840" y="3130" as="targetPoint" />
          </mxGeometry>
        </mxCell>
        <mxCell id="L6hsn2K8NmfEs2gSqm9i-13" value="&lt;span style=&quot;font-size: 23px;&quot;&gt;address&lt;/span&gt;" style="ellipse;whiteSpace=wrap;html=1;fillColor=light-dark(#baf4f5, #ededed);" parent="1" vertex="1">
          <mxGeometry x="3823.5" y="3110" width="120" height="80" as="geometry" />
        </mxCell>
        <mxCell id="L6hsn2K8NmfEs2gSqm9i-17" value="" style="endArrow=none;html=1;rounded=0;exitX=1;exitY=0.5;exitDx=0;exitDy=0;entryX=0;entryY=0.5;entryDx=0;entryDy=0;" parent="1" source="-V-z7xhwJEZhr13rw5rR-24" target="11X91SY8pe6WJFM1M_jt-2" edge="1">
          <mxGeometry width="50" height="50" relative="1" as="geometry">
            <mxPoint x="3710" y="3200" as="sourcePoint" />
            <mxPoint x="3930" y="3180" as="targetPoint" />
          </mxGeometry>
        </mxCell>
        <mxCell id="j8pLMdyv14ZoFIphvLqD-1" value="" style="endArrow=none;html=1;rounded=0;exitX=1;exitY=0;exitDx=0;exitDy=0;entryX=1;entryY=0.5;entryDx=0;entryDy=0;" parent="1" source="j8pLMdyv14ZoFIphvLqD-2" target="L6hsn2K8NmfEs2gSqm9i-13" edge="1">
          <mxGeometry width="50" height="50" relative="1" as="geometry">
            <mxPoint x="4140" y="3200.5" as="sourcePoint" />
            <mxPoint x="4140" y="3080" as="targetPoint" />
          </mxGeometry>
        </mxCell>
        <mxCell id="j8pLMdyv14ZoFIphvLqD-2" value="&lt;font style=&quot;font-size: 23px;&quot;&gt;city&lt;/font&gt;" style="ellipse;whiteSpace=wrap;html=1;fillColor=light-dark(#baf4f5, #ededed);" parent="1" vertex="1">
          <mxGeometry x="3990" y="3040" width="120" height="80" as="geometry" />
        </mxCell>
        <mxCell id="j8pLMdyv14ZoFIphvLqD-3" value="&lt;font style=&quot;font-size: 23px;&quot;&gt;street&lt;/font&gt;" style="ellipse;whiteSpace=wrap;html=1;fillColor=light-dark(#baf4f5, #ededed);" parent="1" vertex="1">
          <mxGeometry x="4000" y="3152.32" width="120" height="80" as="geometry" />
        </mxCell>
        <mxCell id="j8pLMdyv14ZoFIphvLqD-4" value="" style="endArrow=none;html=1;rounded=0;exitX=1;exitY=0.75;exitDx=0;exitDy=0;entryX=0;entryY=0.5;entryDx=0;entryDy=0;" parent="1" source="-V-z7xhwJEZhr13rw5rR-24" target="11X91SY8pe6WJFM1M_jt-10" edge="1">
          <mxGeometry width="50" height="50" relative="1" as="geometry">
            <mxPoint x="3830" y="3260" as="sourcePoint" />
            <mxPoint x="3930" y="3240" as="targetPoint" />
          </mxGeometry>
        </mxCell>
        <mxCell id="j8pLMdyv14ZoFIphvLqD-6" value="" style="endArrow=none;html=1;rounded=0;exitX=1;exitY=0.5;exitDx=0;exitDy=0;" parent="1" source="L6hsn2K8NmfEs2gSqm9i-13" target="j8pLMdyv14ZoFIphvLqD-3" edge="1">
          <mxGeometry width="50" height="50" relative="1" as="geometry">
            <mxPoint x="4053.5" y="3074" as="sourcePoint" />
            <mxPoint x="4103.5" y="3024" as="targetPoint" />
          </mxGeometry>
        </mxCell>
        <mxCell id="j8pLMdyv14ZoFIphvLqD-10" value="" style="endArrow=none;html=1;rounded=0;exitX=1;exitY=1;exitDx=0;exitDy=0;entryX=0.5;entryY=0;entryDx=0;entryDy=0;" parent="1" source="-V-z7xhwJEZhr13rw5rR-24" target="11X91SY8pe6WJFM1M_jt-9" edge="1">
          <mxGeometry width="50" height="50" relative="1" as="geometry">
            <mxPoint x="3690" y="3300" as="sourcePoint" />
            <mxPoint x="3900" y="3290" as="targetPoint" />
          </mxGeometry>
        </mxCell>
        <mxCell id="j8pLMdyv14ZoFIphvLqD-11" value="" style="endArrow=none;html=1;rounded=0;exitX=0.75;exitY=1;exitDx=0;exitDy=0;entryX=0.5;entryY=0;entryDx=0;entryDy=0;" parent="1" source="-V-z7xhwJEZhr13rw5rR-24" target="11X91SY8pe6WJFM1M_jt-13" edge="1">
          <mxGeometry width="50" height="50" relative="1" as="geometry">
            <mxPoint x="3780" y="3440" as="sourcePoint" />
            <mxPoint x="3850" y="3340" as="targetPoint" />
          </mxGeometry>
        </mxCell>
        <mxCell id="j8pLMdyv14ZoFIphvLqD-12" value="" style="endArrow=none;html=1;rounded=0;exitX=0.616;exitY=1.027;exitDx=0;exitDy=0;exitPerimeter=0;entryX=0.5;entryY=0;entryDx=0;entryDy=0;" parent="1" source="-V-z7xhwJEZhr13rw5rR-24" target="11X91SY8pe6WJFM1M_jt-14" edge="1">
          <mxGeometry width="50" height="50" relative="1" as="geometry">
            <mxPoint x="3950" y="3430" as="sourcePoint" />
            <mxPoint x="3770" y="3430" as="targetPoint" />
          </mxGeometry>
        </mxCell>
        <mxCell id="j8pLMdyv14ZoFIphvLqD-20" value="" style="endArrow=none;html=1;rounded=0;exitX=1;exitY=0;exitDx=0;exitDy=0;entryX=0.5;entryY=1;entryDx=0;entryDy=0;" parent="1" source="-V-z7xhwJEZhr13rw5rR-24" target="11X91SY8pe6WJFM1M_jt-33" edge="1">
          <mxGeometry width="50" height="50" relative="1" as="geometry">
            <mxPoint x="3800" y="2890" as="sourcePoint" />
            <mxPoint x="3720" y="3020" as="targetPoint" />
          </mxGeometry>
        </mxCell>
        <mxCell id="_zbzU1hTHlq6Wiyv0RqP-1" value="" style="endArrow=none;html=1;rounded=0;exitX=0.25;exitY=1;exitDx=0;exitDy=0;entryX=0.5;entryY=0;entryDx=0;entryDy=0;" parent="1" source="-sQpzmOSKnh0VmdjPz6c-2" target="6IbCY1L3RP945PrHbFw4-2" edge="1">
          <mxGeometry width="50" height="50" relative="1" as="geometry">
            <mxPoint x="2010" y="3510" as="sourcePoint" />
            <mxPoint x="1990" y="3590" as="targetPoint" />
          </mxGeometry>
        </mxCell>
        <mxCell id="6IbCY1L3RP945PrHbFw4-1" value="&lt;font style=&quot;font-size: 42px;&quot;&gt;is_correct&lt;/font&gt;" style="ellipse;whiteSpace=wrap;html=1;fillColor=light-dark(#baf4f5, #ededed);" parent="1" vertex="1">
          <mxGeometry x="2180" y="3555" width="233.5" height="100" as="geometry" />
        </mxCell>
        <mxCell id="6IbCY1L3RP945PrHbFw4-2" value="&lt;font style=&quot;font-size: 36px;&quot;&gt;&lt;b style=&quot;&quot;&gt;&lt;u style=&quot;&quot;&gt;choice_id&lt;/u&gt;&lt;/b&gt;&lt;/font&gt;" style="ellipse;whiteSpace=wrap;html=1;fillColor=light-dark(#baf4f5, #ededed);" parent="1" vertex="1">
          <mxGeometry x="1810" y="3550" width="240" height="110" as="geometry" />
        </mxCell>
        <mxCell id="6IbCY1L3RP945PrHbFw4-3" value="&lt;font style=&quot;font-size: 39px;&quot;&gt;choice_text&lt;/font&gt;" style="ellipse;whiteSpace=wrap;html=1;fillColor=light-dark(#baf4f5, #ededed);" parent="1" vertex="1">
          <mxGeometry x="1990" y="3670" width="280" height="110" as="geometry" />
        </mxCell>
        <mxCell id="6IbCY1L3RP945PrHbFw4-5" value="" style="endArrow=none;html=1;rounded=0;entryX=0.5;entryY=1;entryDx=0;entryDy=0;exitX=0.5;exitY=0;exitDx=0;exitDy=0;" parent="1" source="6IbCY1L3RP945PrHbFw4-3" target="-sQpzmOSKnh0VmdjPz6c-2" edge="1">
          <mxGeometry width="50" height="50" relative="1" as="geometry">
            <mxPoint x="2120" y="3590" as="sourcePoint" />
            <mxPoint x="2131.75" y="3510" as="targetPoint" />
          </mxGeometry>
        </mxCell>
        <mxCell id="6IbCY1L3RP945PrHbFw4-6" value="" style="endArrow=none;html=1;rounded=0;entryX=0.75;entryY=1;entryDx=0;entryDy=0;exitX=0.5;exitY=0;exitDx=0;exitDy=0;" parent="1" source="6IbCY1L3RP945PrHbFw4-1" target="-sQpzmOSKnh0VmdjPz6c-2" edge="1">
          <mxGeometry width="50" height="50" relative="1" as="geometry">
            <mxPoint x="2190" y="3580" as="sourcePoint" />
            <mxPoint x="2240" y="3530" as="targetPoint" />
          </mxGeometry>
        </mxCell>
        <mxCell id="5lhgrN7rNZyinF7Pz7Mg-1" value="&lt;font style=&quot;font-size: 32px;&quot;&gt;crs_name&lt;/font&gt;" style="ellipse;whiteSpace=wrap;html=1;fillColor=light-dark(#baf4f5, #ededed);" parent="1" vertex="1">
          <mxGeometry x="1670" y="2325.13" width="190.5" height="72.5" as="geometry" />
        </mxCell>
        <mxCell id="5lhgrN7rNZyinF7Pz7Mg-2" value="&lt;u&gt;&lt;font style=&quot;font-size: 36px;&quot;&gt;&lt;b style=&quot;&quot;&gt;crs_id&lt;/b&gt;&lt;/font&gt;&lt;/u&gt;" style="ellipse;whiteSpace=wrap;html=1;fillColor=light-dark(#baf4f5, #ededed);" parent="1" vertex="1">
          <mxGeometry x="1150" y="2240" width="184" height="80" as="geometry" />
        </mxCell>
        <mxCell id="5lhgrN7rNZyinF7Pz7Mg-3" value="&lt;font style=&quot;font-size: 31px;&quot;&gt;description&lt;/font&gt;" style="ellipse;whiteSpace=wrap;html=1;fillColor=light-dark(#baf4f5, #ededed);" parent="1" vertex="1">
          <mxGeometry x="1720" y="2207.68" width="189" height="72.32" as="geometry" />
        </mxCell>
        <mxCell id="5lhgrN7rNZyinF7Pz7Mg-4" value="&lt;font style=&quot;font-size: 29px;&quot;&gt;max_degree&lt;/font&gt;" style="ellipse;whiteSpace=wrap;html=1;fillColor=light-dark(#baf4f5, #ededed);" parent="1" vertex="1">
          <mxGeometry x="1270" y="2341" width="203" height="87.48" as="geometry" />
        </mxCell>
        <mxCell id="5lhgrN7rNZyinF7Pz7Mg-5" value="&lt;font style=&quot;font-size: 31px;&quot;&gt;min_degree&lt;/font&gt;" style="ellipse;whiteSpace=wrap;html=1;fillColor=light-dark(#baf4f5, #ededed);" parent="1" vertex="1">
          <mxGeometry x="1480" y="2356.5" width="190" height="87.32" as="geometry" />
        </mxCell>
        <mxCell id="5lhgrN7rNZyinF7Pz7Mg-6" value="" style="endArrow=none;html=1;rounded=0;entryX=0.145;entryY=0.997;entryDx=0;entryDy=0;entryPerimeter=0;exitX=0.5;exitY=0;exitDx=0;exitDy=0;" parent="1" source="5lhgrN7rNZyinF7Pz7Mg-2" target="gt6wXpr9EtS7xhwxAVzs-5" edge="1">
          <mxGeometry width="50" height="50" relative="1" as="geometry">
            <mxPoint x="1300" y="2260" as="sourcePoint" />
            <mxPoint x="1400" y="2170" as="targetPoint" />
          </mxGeometry>
        </mxCell>
        <mxCell id="5lhgrN7rNZyinF7Pz7Mg-7" value="" style="endArrow=none;html=1;rounded=0;entryX=0.25;entryY=1;entryDx=0;entryDy=0;exitX=0.5;exitY=0;exitDx=0;exitDy=0;" parent="1" source="5lhgrN7rNZyinF7Pz7Mg-4" target="gt6wXpr9EtS7xhwxAVzs-5" edge="1">
          <mxGeometry width="50" height="50" relative="1" as="geometry">
            <mxPoint x="1390" y="2290" as="sourcePoint" />
            <mxPoint x="1810" y="2090" as="targetPoint" />
          </mxGeometry>
        </mxCell>
        <mxCell id="5lhgrN7rNZyinF7Pz7Mg-15" value="" style="endArrow=none;html=1;rounded=0;entryX=0.39;entryY=0.997;entryDx=0;entryDy=0;entryPerimeter=0;exitX=0.5;exitY=0;exitDx=0;exitDy=0;" parent="1" source="5lhgrN7rNZyinF7Pz7Mg-5" target="gt6wXpr9EtS7xhwxAVzs-5" edge="1">
          <mxGeometry width="50" height="50" relative="1" as="geometry">
            <mxPoint x="1510" y="2290" as="sourcePoint" />
            <mxPoint x="1459" y="2130" as="targetPoint" />
          </mxGeometry>
        </mxCell>
        <mxCell id="5lhgrN7rNZyinF7Pz7Mg-16" value="" style="endArrow=none;html=1;rounded=0;entryX=0.5;entryY=1;entryDx=0;entryDy=0;exitX=0.5;exitY=0;exitDx=0;exitDy=0;" parent="1" source="5lhgrN7rNZyinF7Pz7Mg-1" target="gt6wXpr9EtS7xhwxAVzs-5" edge="1">
          <mxGeometry width="50" height="50" relative="1" as="geometry">
            <mxPoint x="1570" y="2310" as="sourcePoint" />
            <mxPoint x="1660" y="2250" as="targetPoint" />
          </mxGeometry>
        </mxCell>
        <mxCell id="5lhgrN7rNZyinF7Pz7Mg-17" value="" style="endArrow=none;html=1;rounded=0;exitX=0.5;exitY=0;exitDx=0;exitDy=0;entryX=0.75;entryY=1;entryDx=0;entryDy=0;" parent="1" source="5lhgrN7rNZyinF7Pz7Mg-3" target="gt6wXpr9EtS7xhwxAVzs-5" edge="1">
          <mxGeometry width="50" height="50" relative="1" as="geometry">
            <mxPoint x="1680" y="2360" as="sourcePoint" />
            <mxPoint x="1600" y="2150" as="targetPoint" />
          </mxGeometry>
        </mxCell>
        <mxCell id="UGaQGxICE7zOSHdhVOcf-1" value="&lt;span style=&quot;font-size: 32px;&quot;&gt;question_type&lt;/span&gt;" style="ellipse;whiteSpace=wrap;html=1;fillColor=light-dark(#baf4f5, #ededed);" parent="1" vertex="1">
          <mxGeometry x="2610" y="1880" width="240" height="72.5" as="geometry" />
        </mxCell>
        <mxCell id="UGaQGxICE7zOSHdhVOcf-2" value="&lt;u&gt;&lt;font style=&quot;font-size: 36px;&quot;&gt;&lt;b style=&quot;&quot;&gt;question_id&lt;/b&gt;&lt;/font&gt;&lt;/u&gt;" style="ellipse;whiteSpace=wrap;html=1;fillColor=light-dark(#baf4f5, #ededed);" parent="1" vertex="1">
          <mxGeometry x="2470" y="2240" width="250" height="80" as="geometry" />
        </mxCell>
        <mxCell id="UGaQGxICE7zOSHdhVOcf-4" value="&lt;font style=&quot;font-size: 29px;&quot;&gt;question_&lt;/font&gt;&lt;span style=&quot;font-size: 29px; background-color: transparent; color: light-dark(rgb(0, 0, 0), rgb(255, 255, 255));&quot;&gt;point&lt;/span&gt;" style="ellipse;whiteSpace=wrap;html=1;fillColor=light-dark(#baf4f5, #ededed);" parent="1" vertex="1">
          <mxGeometry x="2670" y="2133.0899999999997" width="240" height="87.48" as="geometry" />
        </mxCell>
        <mxCell id="UGaQGxICE7zOSHdhVOcf-5" value="&lt;font style=&quot;font-size: 31px;&quot;&gt;text_point&lt;/font&gt;" style="ellipse;whiteSpace=wrap;html=1;fillColor=light-dark(#baf4f5, #ededed);" parent="1" vertex="1">
          <mxGeometry x="2740" y="2010.1599999999999" width="190" height="87.32" as="geometry" />
        </mxCell>
        <mxCell id="UGaQGxICE7zOSHdhVOcf-6" value="" style="endArrow=none;html=1;rounded=0;entryX=0.75;entryY=1;entryDx=0;entryDy=0;exitX=0.5;exitY=0;exitDx=0;exitDy=0;" parent="1" source="UGaQGxICE7zOSHdhVOcf-2" target="-sQpzmOSKnh0VmdjPz6c-1" edge="1">
          <mxGeometry width="50" height="50" relative="1" as="geometry">
            <mxPoint x="2850" y="2160" as="sourcePoint" />
            <mxPoint x="2942" y="2010" as="targetPoint" />
          </mxGeometry>
        </mxCell>
        <mxCell id="UGaQGxICE7zOSHdhVOcf-7" value="" style="endArrow=none;html=1;rounded=0;entryX=1;entryY=1;entryDx=0;entryDy=0;exitX=0;exitY=0.5;exitDx=0;exitDy=0;" parent="1" source="UGaQGxICE7zOSHdhVOcf-4" target="-sQpzmOSKnh0VmdjPz6c-1" edge="1">
          <mxGeometry width="50" height="50" relative="1" as="geometry">
            <mxPoint x="2940" y="2190" as="sourcePoint" />
            <mxPoint x="2970" y="2010" as="targetPoint" />
          </mxGeometry>
        </mxCell>
        <mxCell id="UGaQGxICE7zOSHdhVOcf-8" value="" style="endArrow=none;html=1;rounded=0;entryX=1;entryY=0.5;entryDx=0;entryDy=0;exitX=0;exitY=0.5;exitDx=0;exitDy=0;" parent="1" source="UGaQGxICE7zOSHdhVOcf-5" target="-sQpzmOSKnh0VmdjPz6c-1" edge="1">
          <mxGeometry width="50" height="50" relative="1" as="geometry">
            <mxPoint x="3060" y="2190" as="sourcePoint" />
            <mxPoint x="3007" y="2010" as="targetPoint" />
          </mxGeometry>
        </mxCell>
        <mxCell id="UGaQGxICE7zOSHdhVOcf-9" value="" style="endArrow=none;html=1;rounded=0;entryX=0.75;entryY=0;entryDx=0;entryDy=0;exitX=0;exitY=1;exitDx=0;exitDy=0;" parent="1" source="UGaQGxICE7zOSHdhVOcf-1" target="-sQpzmOSKnh0VmdjPz6c-1" edge="1">
          <mxGeometry width="50" height="50" relative="1" as="geometry">
            <mxPoint x="3120" y="2210" as="sourcePoint" />
            <mxPoint x="3037" y="2010" as="targetPoint" />
          </mxGeometry>
        </mxCell>
        <mxCell id="fgkt9SFoZj1dcGF-uB4O-4" value="&lt;font style=&quot;font-size: 34px;&quot;&gt;dept_name&lt;/font&gt;" style="ellipse;whiteSpace=wrap;html=1;fillColor=light-dark(#baf4f5, #ededed);" parent="1" vertex="1">
          <mxGeometry x="180" y="1090" width="203" height="87.48" as="geometry" />
        </mxCell>
        <mxCell id="fgkt9SFoZj1dcGF-uB4O-5" value="&lt;b style=&quot;&quot;&gt;&lt;u style=&quot;&quot;&gt;&lt;font style=&quot;font-size: 37px;&quot;&gt;dept_id&lt;/font&gt;&lt;/u&gt;&lt;/b&gt;" style="ellipse;whiteSpace=wrap;html=1;fillColor=light-dark(#baf4f5, #ededed);" parent="1" vertex="1">
          <mxGeometry x="430" y="1025.5" width="190" height="87.32" as="geometry" />
        </mxCell>
        <mxCell id="fgkt9SFoZj1dcGF-uB4O-6" value="" style="endArrow=none;html=1;rounded=0;entryX=0;entryY=0.5;entryDx=0;entryDy=0;exitX=0.5;exitY=1;exitDx=0;exitDy=0;" parent="1" source="fgkt9SFoZj1dcGF-uB4O-4" target="-sQpzmOSKnh0VmdjPz6c-3" edge="1">
          <mxGeometry width="50" height="50" relative="1" as="geometry">
            <mxPoint x="80" y="959" as="sourcePoint" />
            <mxPoint x="220" y="1284" as="targetPoint" />
          </mxGeometry>
        </mxCell>
        <mxCell id="fgkt9SFoZj1dcGF-uB4O-7" value="" style="endArrow=none;html=1;rounded=0;exitX=0.5;exitY=1;exitDx=0;exitDy=0;entryX=0.5;entryY=0;entryDx=0;entryDy=0;" parent="1" source="fgkt9SFoZj1dcGF-uB4O-5" target="-sQpzmOSKnh0VmdjPz6c-3" edge="1">
          <mxGeometry width="50" height="50" relative="1" as="geometry">
            <mxPoint x="200" y="959" as="sourcePoint" />
            <mxPoint x="350" y="1234" as="targetPoint" />
          </mxGeometry>
        </mxCell>
        <mxCell id="5JHDIdPVdupMCGbdeWe9-4" value="&lt;b&gt;&lt;u&gt;&lt;font style=&quot;font-size: 30px;&quot;&gt;branch_id&lt;/font&gt;&lt;/u&gt;&lt;/b&gt;" style="ellipse;whiteSpace=wrap;html=1;fillColor=light-dark(#baf4f5, #ededed);" parent="1" vertex="1">
          <mxGeometry x="230" y="3140" width="184" height="80" as="geometry" />
        </mxCell>
        <mxCell id="5JHDIdPVdupMCGbdeWe9-5" value="&lt;font style=&quot;font-size: 30px;&quot;&gt;branch_name&lt;/font&gt;" style="ellipse;whiteSpace=wrap;html=1;fillColor=light-dark(#baf4f5, #ededed);" parent="1" vertex="1">
          <mxGeometry x="300" y="3232.32" width="223" height="87.48" as="geometry" />
        </mxCell>
        <mxCell id="5JHDIdPVdupMCGbdeWe9-6" value="&lt;font style=&quot;font-size: 33px;&quot;&gt;location&lt;/font&gt;" style="ellipse;whiteSpace=wrap;html=1;fillColor=light-dark(#baf4f5, #ededed);" parent="1" vertex="1">
          <mxGeometry x="460" y="3160" width="190" height="87.32" as="geometry" />
        </mxCell>
        <mxCell id="5JHDIdPVdupMCGbdeWe9-7" value="" style="endArrow=none;html=1;rounded=0;entryX=0.25;entryY=1;entryDx=0;entryDy=0;exitX=0.5;exitY=0;exitDx=0;exitDy=0;" parent="1" source="5JHDIdPVdupMCGbdeWe9-4" target="_ncUiMCGVskBUBOPld8g-6" edge="1">
          <mxGeometry width="50" height="50" relative="1" as="geometry">
            <mxPoint x="500" y="3210" as="sourcePoint" />
            <mxPoint x="592" y="3060" as="targetPoint" />
          </mxGeometry>
        </mxCell>
        <mxCell id="5JHDIdPVdupMCGbdeWe9-8" value="" style="endArrow=none;html=1;rounded=0;entryX=0.5;entryY=1;entryDx=0;entryDy=0;exitX=0.5;exitY=0;exitDx=0;exitDy=0;" parent="1" source="5JHDIdPVdupMCGbdeWe9-5" target="_ncUiMCGVskBUBOPld8g-6" edge="1">
          <mxGeometry width="50" height="50" relative="1" as="geometry">
            <mxPoint x="590" y="3240" as="sourcePoint" />
            <mxPoint x="620" y="3060" as="targetPoint" />
          </mxGeometry>
        </mxCell>
        <mxCell id="5JHDIdPVdupMCGbdeWe9-9" value="" style="endArrow=none;html=1;rounded=0;entryX=0.75;entryY=1;entryDx=0;entryDy=0;exitX=0.5;exitY=0;exitDx=0;exitDy=0;" parent="1" source="5JHDIdPVdupMCGbdeWe9-6" target="_ncUiMCGVskBUBOPld8g-6" edge="1">
          <mxGeometry width="50" height="50" relative="1" as="geometry">
            <mxPoint x="710" y="3240" as="sourcePoint" />
            <mxPoint x="657" y="3060" as="targetPoint" />
          </mxGeometry>
        </mxCell>
        <mxCell id="sgTD74AobOGuE22C-62T-4" value="&lt;b&gt;&lt;u&gt;&lt;font style=&quot;font-size: 31px;&quot;&gt;intake_id&lt;/font&gt;&lt;/u&gt;&lt;/b&gt;" style="ellipse;whiteSpace=wrap;html=1;fillColor=light-dark(#baf4f5, #ededed);" parent="1" vertex="1">
          <mxGeometry x="-500" y="2350" width="194" height="90.16" as="geometry" />
        </mxCell>
        <mxCell id="sgTD74AobOGuE22C-62T-5" value="&lt;font style=&quot;font-size: 32px;&quot;&gt;start_Date&lt;/font&gt;" style="ellipse;whiteSpace=wrap;html=1;fillColor=light-dark(#baf4f5, #ededed);" parent="1" vertex="1">
          <mxGeometry x="-550" y="2455.0800000000004" width="223" height="87.48" as="geometry" />
        </mxCell>
        <mxCell id="sgTD74AobOGuE22C-62T-6" value="&lt;font style=&quot;font-size: 32px;&quot;&gt;end_Date&lt;/font&gt;" style="ellipse;whiteSpace=wrap;html=1;fillColor=light-dark(#baf4f5, #ededed);" parent="1" vertex="1">
          <mxGeometry x="-496" y="2560" width="190" height="87.32" as="geometry" />
        </mxCell>
        <mxCell id="sgTD74AobOGuE22C-62T-7" value="" style="endArrow=none;html=1;rounded=0;entryX=0;entryY=0.25;entryDx=0;entryDy=0;exitX=1;exitY=0.5;exitDx=0;exitDy=0;" parent="1" source="sgTD74AobOGuE22C-62T-4" target="gt6wXpr9EtS7xhwxAVzs-2" edge="1">
          <mxGeometry width="50" height="50" relative="1" as="geometry">
            <mxPoint x="-176" y="2640" as="sourcePoint" />
            <mxPoint x="-226" y="2491.3199999999997" as="targetPoint" />
          </mxGeometry>
        </mxCell>
        <mxCell id="sgTD74AobOGuE22C-62T-8" value="" style="endArrow=none;html=1;rounded=0;entryX=0;entryY=0.5;entryDx=0;entryDy=0;exitX=1;exitY=0.5;exitDx=0;exitDy=0;" parent="1" source="sgTD74AobOGuE22C-62T-5" target="gt6wXpr9EtS7xhwxAVzs-2" edge="1">
          <mxGeometry width="50" height="50" relative="1" as="geometry">
            <mxPoint x="-86" y="2670" as="sourcePoint" />
            <mxPoint x="-211" y="2420" as="targetPoint" />
          </mxGeometry>
        </mxCell>
        <mxCell id="sgTD74AobOGuE22C-62T-9" value="" style="endArrow=none;html=1;rounded=0;entryX=0;entryY=0.75;entryDx=0;entryDy=0;exitX=1;exitY=0.5;exitDx=0;exitDy=0;" parent="1" source="sgTD74AobOGuE22C-62T-6" target="gt6wXpr9EtS7xhwxAVzs-2" edge="1">
          <mxGeometry width="50" height="50" relative="1" as="geometry">
            <mxPoint x="34" y="2670" as="sourcePoint" />
            <mxPoint x="-146" y="2420" as="targetPoint" />
          </mxGeometry>
        </mxCell>
        <mxCell id="WIqVgODHVEGUc5zJ9qX2-7" value="&lt;font style=&quot;font-size: 30px;&quot;&gt;start_time&lt;/font&gt;" style="ellipse;whiteSpace=wrap;html=1;fillColor=light-dark(#baf4f5, #ededed);" parent="1" vertex="1">
          <mxGeometry x="3870" y="1714.13" width="190.5" height="72.5" as="geometry" />
        </mxCell>
        <mxCell id="WIqVgODHVEGUc5zJ9qX2-8" value="&lt;b&gt;&lt;u&gt;&lt;font style=&quot;font-size: 30px;&quot;&gt;exam_id&lt;/font&gt;&lt;/u&gt;&lt;/b&gt;" style="ellipse;whiteSpace=wrap;html=1;fillColor=light-dark(#baf4f5, #ededed);" parent="1" vertex="1">
          <mxGeometry x="3606" y="2043.82" width="184" height="80" as="geometry" />
        </mxCell>
        <mxCell id="WIqVgODHVEGUc5zJ9qX2-9" value="&lt;font style=&quot;font-size: 31px;&quot;&gt;date&lt;/font&gt;" style="ellipse;whiteSpace=wrap;html=1;fillColor=light-dark(#baf4f5, #ededed);" parent="1" vertex="1">
          <mxGeometry x="3830" y="1835.32" width="190" height="87.32" as="geometry" />
        </mxCell>
        <mxCell id="WIqVgODHVEGUc5zJ9qX2-10" value="" style="endArrow=none;html=1;rounded=0;entryX=0.75;entryY=1;entryDx=0;entryDy=0;exitX=0.5;exitY=0;exitDx=0;exitDy=0;" parent="1" source="WIqVgODHVEGUc5zJ9qX2-8" target="gt6wXpr9EtS7xhwxAVzs-6" edge="1">
          <mxGeometry width="50" height="50" relative="1" as="geometry">
            <mxPoint x="3802" y="2050" as="sourcePoint" />
            <mxPoint x="3260" y="1955.3199999999997" as="targetPoint" />
          </mxGeometry>
        </mxCell>
        <mxCell id="WIqVgODHVEGUc5zJ9qX2-12" value="" style="endArrow=none;html=1;rounded=0;entryX=1;entryY=0.5;entryDx=0;entryDy=0;exitX=0;exitY=0.5;exitDx=0;exitDy=0;" parent="1" source="WIqVgODHVEGUc5zJ9qX2-9" target="gt6wXpr9EtS7xhwxAVzs-6" edge="1">
          <mxGeometry width="50" height="50" relative="1" as="geometry">
            <mxPoint x="4012" y="2080" as="sourcePoint" />
            <mxPoint x="3959" y="1900" as="targetPoint" />
          </mxGeometry>
        </mxCell>
        <mxCell id="WIqVgODHVEGUc5zJ9qX2-13" value="" style="endArrow=none;html=1;rounded=0;entryX=1;entryY=0.25;entryDx=0;entryDy=0;exitX=0;exitY=0.5;exitDx=0;exitDy=0;" parent="1" source="WIqVgODHVEGUc5zJ9qX2-7" target="gt6wXpr9EtS7xhwxAVzs-6" edge="1">
          <mxGeometry width="50" height="50" relative="1" as="geometry">
            <mxPoint x="4072" y="2100" as="sourcePoint" />
            <mxPoint x="3989" y="1900" as="targetPoint" />
          </mxGeometry>
        </mxCell>
        <mxCell id="WIqVgODHVEGUc5zJ9qX2-15" value="&lt;font style=&quot;font-size: 30px;&quot;&gt;exam_type&lt;/font&gt;" style="ellipse;whiteSpace=wrap;html=1;fillColor=light-dark(#baf4f5, #ededed);" parent="1" vertex="1">
          <mxGeometry x="3790" y="1963.8199999999995" width="184" height="80" as="geometry" />
        </mxCell>
        <mxCell id="WIqVgODHVEGUc5zJ9qX2-16" value="" style="endArrow=none;html=1;rounded=0;exitX=0;exitY=0;exitDx=0;exitDy=0;" parent="1" source="WIqVgODHVEGUc5zJ9qX2-15" edge="1">
          <mxGeometry width="50" height="50" relative="1" as="geometry">
            <mxPoint x="4042" y="2069.68" as="sourcePoint" />
            <mxPoint x="3640" y="1830" as="targetPoint" />
          </mxGeometry>
        </mxCell>
        <mxCell id="WIqVgODHVEGUc5zJ9qX2-18" value="&lt;font style=&quot;font-size: 30px;&quot;&gt;end_time&lt;/font&gt;" style="ellipse;whiteSpace=wrap;html=1;fillColor=light-dark(#baf4f5, #ededed);" parent="1" vertex="1">
          <mxGeometry x="3810" y="1575.05" width="190" height="87.32" as="geometry" />
        </mxCell>
        <mxCell id="WIqVgODHVEGUc5zJ9qX2-19" value="" style="endArrow=none;html=1;rounded=0;entryX=0.75;entryY=0;entryDx=0;entryDy=0;exitX=0;exitY=1;exitDx=0;exitDy=0;" parent="1" source="WIqVgODHVEGUc5zJ9qX2-18" target="gt6wXpr9EtS7xhwxAVzs-6" edge="1">
          <mxGeometry width="50" height="50" relative="1" as="geometry">
            <mxPoint x="4073.95" y="1720.48" as="sourcePoint" />
            <mxPoint x="3450.0019999999995" y="1449.9999999999986" as="targetPoint" />
          </mxGeometry>
        </mxCell>
        <mxCell id="WIqVgODHVEGUc5zJ9qX2-20" value="&lt;font style=&quot;font-size: 30px;&quot;&gt;exam_grade&lt;/font&gt;" style="ellipse;whiteSpace=wrap;html=1;fillColor=light-dark(#baf4f5, #ededed);" parent="1" vertex="1">
          <mxGeometry x="3614.0000000000005" y="1497.63" width="190" height="87.32" as="geometry" />
        </mxCell>
        <mxCell id="WIqVgODHVEGUc5zJ9qX2-21" value="" style="endArrow=none;html=1;rounded=0;entryX=0.5;entryY=0;entryDx=0;entryDy=0;exitX=0;exitY=1;exitDx=0;exitDy=0;" parent="1" source="WIqVgODHVEGUc5zJ9qX2-20" target="gt6wXpr9EtS7xhwxAVzs-6" edge="1">
          <mxGeometry width="50" height="50" relative="1" as="geometry">
            <mxPoint x="3908.0000000000005" y="1600" as="sourcePoint" />
            <mxPoint x="3214.77" y="1945.3199999999997" as="targetPoint" />
          </mxGeometry>
        </mxCell>
        <mxCell id="7TAn6j6hJst4AHTW307I-2" value="" style="endArrow=none;html=1;rounded=0;entryX=1;entryY=1;entryDx=0;entryDy=0;exitX=0.166;exitY=0.001;exitDx=0;exitDy=0;exitPerimeter=0;" parent="1" source="gt6wXpr9EtS7xhwxAVzs-4" target="7TAn6j6hJst4AHTW307I-10" edge="1">
          <mxGeometry width="50" height="50" relative="1" as="geometry">
            <mxPoint x="1396" y="1170" as="sourcePoint" />
            <mxPoint x="1850" y="990" as="targetPoint" />
          </mxGeometry>
        </mxCell>
        <mxCell id="7TAn6j6hJst4AHTW307I-3" value="" style="endArrow=none;html=1;rounded=0;entryX=0.963;entryY=0.686;entryDx=0;entryDy=0;exitX=0;exitY=0.25;exitDx=0;exitDy=0;entryPerimeter=0;" parent="1" source="gt6wXpr9EtS7xhwxAVzs-4" target="7TAn6j6hJst4AHTW307I-9" edge="1">
          <mxGeometry width="50" height="50" relative="1" as="geometry">
            <mxPoint x="1731.6719999999996" y="1203.3199999999988" as="sourcePoint" />
            <mxPoint x="1730" y="960" as="targetPoint" />
          </mxGeometry>
        </mxCell>
        <mxCell id="7TAn6j6hJst4AHTW307I-4" value="&lt;font style=&quot;font-size: 25px;&quot;&gt;&lt;u style=&quot;&quot;&gt;&lt;b style=&quot;&quot;&gt;ins_id&lt;/b&gt;&lt;/u&gt;&lt;/font&gt;" style="ellipse;whiteSpace=wrap;html=1;strokeWidth=1;perimeterSpacing=1;fillColor=light-dark(#baf4f5, #ededed);" parent="1" vertex="1">
          <mxGeometry x="1550" y="1008.5" width="133.5" height="61.5" as="geometry" />
        </mxCell>
        <mxCell id="7TAn6j6hJst4AHTW307I-7" value="&lt;font style=&quot;font-size: 26px;&quot;&gt;gender&lt;/font&gt;" style="ellipse;whiteSpace=wrap;html=1;strokeWidth=1;perimeterSpacing=1;rotation=0;fillColor=light-dark(#baf4f5, #ededed);" parent="1" vertex="1">
          <mxGeometry x="1900" y="1097.5" width="160" height="72.5" as="geometry" />
        </mxCell>
        <mxCell id="7TAn6j6hJst4AHTW307I-9" value="&lt;font style=&quot;font-size: 22px;&quot;&gt;user_name&lt;/font&gt;" style="ellipse;whiteSpace=wrap;html=1;fillColor=light-dark(#baf4f5, #ededed);" parent="1" vertex="1">
          <mxGeometry x="1110" y="1160" width="120" height="80" as="geometry" />
        </mxCell>
        <mxCell id="7TAn6j6hJst4AHTW307I-10" value="&lt;span style=&quot;font-size: 30px;&quot;&gt;gender&lt;/span&gt;" style="ellipse;whiteSpace=wrap;html=1;fillColor=light-dark(#baf4f5, #ededed);" parent="1" vertex="1">
          <mxGeometry x="1150" y="1070" width="130" height="80" as="geometry" />
        </mxCell>
        <mxCell id="7TAn6j6hJst4AHTW307I-11" value="&lt;font style=&quot;font-size: 24px;&quot;&gt;password&lt;/font&gt;" style="ellipse;whiteSpace=wrap;html=1;fillColor=light-dark(#baf4f5, #ededed);" parent="1" vertex="1">
          <mxGeometry x="1233.5" y="970" width="120" height="80" as="geometry" />
        </mxCell>
        <mxCell id="7TAn6j6hJst4AHTW307I-12" value="&lt;font style=&quot;font-size: 23px;&quot;&gt;ins_name&lt;/font&gt;" style="ellipse;whiteSpace=wrap;html=1;fillColor=light-dark(#baf4f5, #ededed);" parent="1" vertex="1">
          <mxGeometry x="1398.5" y="990" width="120" height="80" as="geometry" />
        </mxCell>
        <mxCell id="7TAn6j6hJst4AHTW307I-13" value="" style="endArrow=none;html=1;rounded=0;exitX=0.5;exitY=0;exitDx=0;exitDy=0;entryX=0.5;entryY=1;entryDx=0;entryDy=0;" parent="1" source="gt6wXpr9EtS7xhwxAVzs-4" target="7TAn6j6hJst4AHTW307I-12" edge="1">
          <mxGeometry width="50" height="50" relative="1" as="geometry">
            <mxPoint x="1281.5" y="1112.8199999999997" as="sourcePoint" />
            <mxPoint x="1505.5" y="775.5" as="targetPoint" />
          </mxGeometry>
        </mxCell>
        <mxCell id="7TAn6j6hJst4AHTW307I-14" value="" style="endArrow=none;html=1;rounded=0;exitX=1;exitY=0;exitDx=0;exitDy=0;entryX=0.5;entryY=1;entryDx=0;entryDy=0;" parent="1" source="7TAn6j6hJst4AHTW307I-12" target="7TAn6j6hJst4AHTW307I-17" edge="1">
          <mxGeometry width="50" height="50" relative="1" as="geometry">
            <mxPoint x="1528.5" y="1105" as="sourcePoint" />
            <mxPoint x="1598.5" y="870" as="targetPoint" />
          </mxGeometry>
        </mxCell>
        <mxCell id="7TAn6j6hJst4AHTW307I-15" value="" style="endArrow=none;html=1;rounded=0;exitX=0.5;exitY=0;exitDx=0;exitDy=0;" parent="1" source="7TAn6j6hJst4AHTW307I-12" target="7TAn6j6hJst4AHTW307I-16" edge="1">
          <mxGeometry width="50" height="50" relative="1" as="geometry">
            <mxPoint x="1490.5" y="955" as="sourcePoint" />
            <mxPoint x="1478.5" y="830" as="targetPoint" />
          </mxGeometry>
        </mxCell>
        <mxCell id="7TAn6j6hJst4AHTW307I-16" value="&lt;font style=&quot;font-size: 23px;&quot;&gt;Lname&lt;/font&gt;" style="ellipse;whiteSpace=wrap;html=1;fillColor=light-dark(#baf4f5, #ededed);" parent="1" vertex="1">
          <mxGeometry x="1334" y="860" width="120" height="80" as="geometry" />
        </mxCell>
        <mxCell id="7TAn6j6hJst4AHTW307I-17" value="&lt;font style=&quot;font-size: 23px;&quot;&gt;Fname&lt;/font&gt;" style="ellipse;whiteSpace=wrap;html=1;fillColor=light-dark(#baf4f5, #ededed);" parent="1" vertex="1">
          <mxGeometry x="1480" y="860" width="120" height="80" as="geometry" />
        </mxCell>
        <mxCell id="7TAn6j6hJst4AHTW307I-18" value="" style="endArrow=none;html=1;rounded=0;exitX=1;exitY=0;exitDx=0;exitDy=0;entryX=0.5;entryY=1;entryDx=0;entryDy=0;" parent="1" source="gt6wXpr9EtS7xhwxAVzs-4" target="7TAn6j6hJst4AHTW307I-19" edge="1">
          <mxGeometry width="50" height="50" relative="1" as="geometry">
            <mxPoint x="1633" y="1210" as="sourcePoint" />
            <mxPoint x="1747.41" y="1060" as="targetPoint" />
          </mxGeometry>
        </mxCell>
        <mxCell id="7TAn6j6hJst4AHTW307I-19" value="&lt;span style=&quot;font-size: 23px;&quot;&gt;address&lt;/span&gt;" style="ellipse;whiteSpace=wrap;html=1;fillColor=light-dark(#baf4f5, #ededed);" parent="1" vertex="1">
          <mxGeometry x="1730.91" y="1040" width="139.09" height="80" as="geometry" />
        </mxCell>
        <mxCell id="7TAn6j6hJst4AHTW307I-20" value="" style="endArrow=none;html=1;rounded=0;exitX=0.75;exitY=0;exitDx=0;exitDy=0;entryX=0.5;entryY=1;entryDx=0;entryDy=0;" parent="1" source="gt6wXpr9EtS7xhwxAVzs-4" target="7TAn6j6hJst4AHTW307I-4" edge="1">
          <mxGeometry width="50" height="50" relative="1" as="geometry">
            <mxPoint x="1836" y="1252.3199999999997" as="sourcePoint" />
            <mxPoint x="2120" y="1240" as="targetPoint" />
          </mxGeometry>
        </mxCell>
        <mxCell id="7TAn6j6hJst4AHTW307I-21" value="" style="endArrow=none;html=1;rounded=0;exitX=0.5;exitY=1;exitDx=0;exitDy=0;entryX=0.5;entryY=0;entryDx=0;entryDy=0;" parent="1" source="7TAn6j6hJst4AHTW307I-22" target="7TAn6j6hJst4AHTW307I-19" edge="1">
          <mxGeometry width="50" height="50" relative="1" as="geometry">
            <mxPoint x="2047.41" y="1130.5" as="sourcePoint" />
            <mxPoint x="2047.41" y="1010" as="targetPoint" />
          </mxGeometry>
        </mxCell>
        <mxCell id="7TAn6j6hJst4AHTW307I-22" value="&lt;font style=&quot;font-size: 23px;&quot;&gt;city&lt;/font&gt;" style="ellipse;whiteSpace=wrap;html=1;fillColor=light-dark(#baf4f5, #ededed);" parent="1" vertex="1">
          <mxGeometry x="1690" y="910.0000000000001" width="120" height="80" as="geometry" />
        </mxCell>
        <mxCell id="7TAn6j6hJst4AHTW307I-23" value="&lt;font style=&quot;font-size: 23px;&quot;&gt;street&lt;/font&gt;" style="ellipse;whiteSpace=wrap;html=1;fillColor=light-dark(#baf4f5, #ededed);" parent="1" vertex="1">
          <mxGeometry x="1830" y="920.0000000000002" width="120" height="80" as="geometry" />
        </mxCell>
        <mxCell id="7TAn6j6hJst4AHTW307I-25" value="" style="endArrow=none;html=1;rounded=0;exitX=0.5;exitY=0;exitDx=0;exitDy=0;" parent="1" source="7TAn6j6hJst4AHTW307I-19" target="7TAn6j6hJst4AHTW307I-23" edge="1">
          <mxGeometry width="50" height="50" relative="1" as="geometry">
            <mxPoint x="1960.91" y="1004" as="sourcePoint" />
            <mxPoint x="2010.91" y="954.0000000000001" as="targetPoint" />
          </mxGeometry>
        </mxCell>
        <mxCell id="7TAn6j6hJst4AHTW307I-27" value="" style="endArrow=none;html=1;rounded=0;exitX=1;exitY=0.5;exitDx=0;exitDy=0;entryX=0;entryY=1;entryDx=0;entryDy=0;" parent="1" source="gt6wXpr9EtS7xhwxAVzs-4" target="7TAn6j6hJst4AHTW307I-7" edge="1">
          <mxGeometry width="50" height="50" relative="1" as="geometry">
            <mxPoint x="1767" y="1302.3199999999997" as="sourcePoint" />
            <mxPoint x="1920" y="1190" as="targetPoint" />
          </mxGeometry>
        </mxCell>
        <mxCell id="7TAn6j6hJst4AHTW307I-29" value="" style="endArrow=none;html=1;rounded=0;exitX=0.378;exitY=0.001;exitDx=0;exitDy=0;entryX=1;entryY=1;entryDx=0;entryDy=0;exitPerimeter=0;" parent="1" source="gt6wXpr9EtS7xhwxAVzs-4" target="7TAn6j6hJst4AHTW307I-11" edge="1">
          <mxGeometry width="50" height="50" relative="1" as="geometry">
            <mxPoint x="1836" y="1202.3199999999997" as="sourcePoint" />
            <mxPoint x="1910" y="1080" as="targetPoint" />
          </mxGeometry>
        </mxCell>
        <mxCell id="XjM0HB8kxpCchEz7kJUM-1" value="&lt;b&gt;&lt;u&gt;&lt;font style=&quot;font-size: 31px;&quot;&gt;track_id&lt;/font&gt;&lt;/u&gt;&lt;/b&gt;" style="ellipse;whiteSpace=wrap;html=1;fillColor=light-dark(#baf4f5, #ededed);" parent="1" vertex="1">
          <mxGeometry x="60" y="1930" width="194" height="90.16" as="geometry" />
        </mxCell>
        <mxCell id="XjM0HB8kxpCchEz7kJUM-3" value="&lt;span style=&quot;font-size: 32px;&quot;&gt;track_name&lt;/span&gt;" style="ellipse;whiteSpace=wrap;html=1;fillColor=light-dark(#baf4f5, #ededed);" parent="1" vertex="1">
          <mxGeometry x="60" y="2070" width="190" height="87.32" as="geometry" />
        </mxCell>
        <mxCell id="XjM0HB8kxpCchEz7kJUM-4" value="" style="endArrow=none;html=1;rounded=0;entryX=0;entryY=0.25;entryDx=0;entryDy=0;exitX=1;exitY=0.5;exitDx=0;exitDy=0;" parent="1" source="XjM0HB8kxpCchEz7kJUM-1" target="_ncUiMCGVskBUBOPld8g-2" edge="1">
          <mxGeometry width="50" height="50" relative="1" as="geometry">
            <mxPoint x="404" y="2190" as="sourcePoint" />
            <mxPoint x="360" y="2021" as="targetPoint" />
          </mxGeometry>
        </mxCell>
        <mxCell id="XjM0HB8kxpCchEz7kJUM-6" value="" style="endArrow=none;html=1;rounded=0;entryX=0;entryY=0.75;entryDx=0;entryDy=0;exitX=1;exitY=0.5;exitDx=0;exitDy=0;" parent="1" source="XjM0HB8kxpCchEz7kJUM-3" target="_ncUiMCGVskBUBOPld8g-2" edge="1">
          <mxGeometry width="50" height="50" relative="1" as="geometry">
            <mxPoint x="614" y="2220" as="sourcePoint" />
            <mxPoint x="360" y="2076" as="targetPoint" />
          </mxGeometry>
        </mxCell>
        <mxCell id="WjE6krQtYIAwwVwgJyOr-4" value="&lt;span style=&quot;font-size: 36px;&quot;&gt;stud_score&lt;/span&gt;" style="ellipse;whiteSpace=wrap;html=1;fillColor=light-dark(#baf4f5, #ededed);" vertex="1" parent="1">
          <mxGeometry x="2450" y="2762.52" width="203" height="87.48" as="geometry" />
        </mxCell>
        <mxCell id="WjE6krQtYIAwwVwgJyOr-5" value="&lt;font style=&quot;font-size: 31px;&quot;&gt;stud_answer&lt;/font&gt;" style="ellipse;whiteSpace=wrap;html=1;fillColor=light-dark(#baf4f5, #ededed);" vertex="1" parent="1">
          <mxGeometry x="2456.5" y="2510" width="193.5" height="90" as="geometry" />
        </mxCell>
        <mxCell id="WjE6krQtYIAwwVwgJyOr-6" value="" style="endArrow=none;html=1;rounded=0;entryX=1;entryY=1;entryDx=0;entryDy=0;exitX=0;exitY=0.5;exitDx=0;exitDy=0;" edge="1" parent="1" source="WjE6krQtYIAwwVwgJyOr-4" target="YkqHJXQgq8Sw7DReT307-4">
          <mxGeometry width="50" height="50" relative="1" as="geometry">
            <mxPoint x="2700" y="2760" as="sourcePoint" />
            <mxPoint x="2730" y="2580" as="targetPoint" />
          </mxGeometry>
        </mxCell>
        <mxCell id="WjE6krQtYIAwwVwgJyOr-7" value="" style="endArrow=none;html=1;rounded=0;entryX=0;entryY=0.5;entryDx=0;entryDy=0;exitX=1;exitY=0;exitDx=0;exitDy=0;" edge="1" parent="1" source="YkqHJXQgq8Sw7DReT307-4" target="WjE6krQtYIAwwVwgJyOr-5">
          <mxGeometry width="50" height="50" relative="1" as="geometry">
            <mxPoint x="2820" y="2760" as="sourcePoint" />
            <mxPoint x="2767" y="2580" as="targetPoint" />
          </mxGeometry>
        </mxCell>
        <mxCell id="WjE6krQtYIAwwVwgJyOr-8" value="&lt;font style=&quot;font-size: 35px;&quot;&gt;m&lt;/font&gt;" style="text;html=1;align=center;verticalAlign=middle;whiteSpace=wrap;rounded=0;" vertex="1" parent="1">
          <mxGeometry x="3300" y="3145.32" width="60" height="30" as="geometry" />
        </mxCell>
        <mxCell id="WjE6krQtYIAwwVwgJyOr-9" value="&lt;font style=&quot;font-size: 35px;&quot;&gt;m&lt;/font&gt;" style="text;html=1;align=center;verticalAlign=middle;whiteSpace=wrap;rounded=0;" vertex="1" parent="1">
          <mxGeometry x="2292" y="2126.32" width="60" height="30" as="geometry" />
        </mxCell>
        <mxCell id="WjE6krQtYIAwwVwgJyOr-12" value="&lt;font style=&quot;font-size: 35px;&quot;&gt;m&lt;/font&gt;" style="text;html=1;align=center;verticalAlign=middle;whiteSpace=wrap;rounded=0;" vertex="1" parent="1">
          <mxGeometry x="3382" y="1849" width="60" height="30" as="geometry" />
        </mxCell>
        <mxCell id="WjE6krQtYIAwwVwgJyOr-13" value="&lt;font style=&quot;font-size: 35px;&quot;&gt;m&lt;/font&gt;" style="text;html=1;align=center;verticalAlign=middle;whiteSpace=wrap;rounded=0;" vertex="1" parent="1">
          <mxGeometry x="3317" y="1745" width="60" height="30" as="geometry" />
        </mxCell>
        <mxCell id="WjE6krQtYIAwwVwgJyOr-14" value="&lt;font style=&quot;font-size: 35px;&quot;&gt;1&lt;/font&gt;" style="text;html=1;align=center;verticalAlign=middle;whiteSpace=wrap;rounded=0;" vertex="1" parent="1">
          <mxGeometry x="1555" y="1960" width="60" height="30" as="geometry" />
        </mxCell>
        <mxCell id="WjE6krQtYIAwwVwgJyOr-15" value="&lt;font style=&quot;font-size: 35px;&quot;&gt;m&lt;/font&gt;" style="text;html=1;align=center;verticalAlign=middle;whiteSpace=wrap;rounded=0;" vertex="1" parent="1">
          <mxGeometry x="1425" y="1963" width="60" height="30" as="geometry" />
        </mxCell>
        <mxCell id="WjE6krQtYIAwwVwgJyOr-16" value="&lt;font style=&quot;font-size: 35px;&quot;&gt;1&lt;/font&gt;" style="text;html=1;align=center;verticalAlign=middle;whiteSpace=wrap;rounded=0;" vertex="1" parent="1">
          <mxGeometry x="1432" y="1360" width="60" height="30" as="geometry" />
        </mxCell>
        <mxCell id="WjE6krQtYIAwwVwgJyOr-17" value="&lt;font style=&quot;font-size: 35px;&quot;&gt;1&lt;/font&gt;" style="text;html=1;align=center;verticalAlign=middle;whiteSpace=wrap;rounded=0;" vertex="1" parent="1">
          <mxGeometry x="1642" y="1235" width="60" height="30" as="geometry" />
        </mxCell>
        <mxCell id="WjE6krQtYIAwwVwgJyOr-18" value="&lt;font style=&quot;font-size: 35px;&quot;&gt;1&lt;/font&gt;" style="text;html=1;align=center;verticalAlign=middle;whiteSpace=wrap;rounded=0;" vertex="1" parent="1">
          <mxGeometry x="1642" y="1329" width="60" height="30" as="geometry" />
        </mxCell>
        <mxCell id="WjE6krQtYIAwwVwgJyOr-20" value="&lt;font style=&quot;font-size: 35px;&quot;&gt;m&lt;/font&gt;" style="text;html=1;align=center;verticalAlign=middle;whiteSpace=wrap;rounded=0;" vertex="1" parent="1">
          <mxGeometry x="2292" y="1957" width="60" height="30" as="geometry" />
        </mxCell>
        <mxCell id="WjE6krQtYIAwwVwgJyOr-21" value="&lt;font style=&quot;font-size: 35px;&quot;&gt;m&lt;/font&gt;" style="text;html=1;align=center;verticalAlign=middle;whiteSpace=wrap;rounded=0;" vertex="1" parent="1">
          <mxGeometry x="3456" y="1700" width="60" height="30" as="geometry" />
        </mxCell>
        <mxCell id="WjE6krQtYIAwwVwgJyOr-25" value="&lt;font style=&quot;font-size: 35px;&quot;&gt;1&lt;/font&gt;" style="text;html=1;align=center;verticalAlign=middle;whiteSpace=wrap;rounded=0;" vertex="1" parent="1">
          <mxGeometry x="663" y="1253" width="60" height="30" as="geometry" />
        </mxCell>
        <mxCell id="WjE6krQtYIAwwVwgJyOr-26" value="&lt;font style=&quot;font-size: 35px;&quot;&gt;m&lt;/font&gt;" style="text;html=1;align=center;verticalAlign=middle;whiteSpace=wrap;rounded=0;" vertex="1" parent="1">
          <mxGeometry x="1258" y="1258" width="60" height="30" as="geometry" />
        </mxCell>
        <mxCell id="WjE6krQtYIAwwVwgJyOr-27" value="&lt;font style=&quot;font-size: 35px;&quot;&gt;m&lt;/font&gt;" style="text;html=1;align=center;verticalAlign=middle;whiteSpace=wrap;rounded=0;" vertex="1" parent="1">
          <mxGeometry x="472" y="1970" width="60" height="30" as="geometry" />
        </mxCell>
        <mxCell id="WjE6krQtYIAwwVwgJyOr-28" value="&lt;font style=&quot;font-size: 35px;&quot;&gt;1&lt;/font&gt;" style="text;html=1;align=center;verticalAlign=middle;whiteSpace=wrap;rounded=0;" vertex="1" parent="1">
          <mxGeometry x="481" y="1360" width="60" height="30" as="geometry" />
        </mxCell>
        <mxCell id="WjE6krQtYIAwwVwgJyOr-31" value="&lt;font style=&quot;font-size: 35px;&quot;&gt;m&lt;/font&gt;" style="text;html=1;align=center;verticalAlign=middle;whiteSpace=wrap;rounded=0;" vertex="1" parent="1">
          <mxGeometry x="414" y="2850" width="60" height="30" as="geometry" />
        </mxCell>
        <mxCell id="WjE6krQtYIAwwVwgJyOr-32" value="&lt;font style=&quot;font-size: 35px;&quot;&gt;m&lt;/font&gt;" style="text;html=1;align=center;verticalAlign=middle;whiteSpace=wrap;rounded=0;" vertex="1" parent="1">
          <mxGeometry x="50" y="2453" width="60" height="30" as="geometry" />
        </mxCell>
        <mxCell id="WjE6krQtYIAwwVwgJyOr-33" value="&lt;font style=&quot;font-size: 35px;&quot;&gt;m&lt;/font&gt;" style="text;html=1;align=center;verticalAlign=middle;whiteSpace=wrap;rounded=0;" vertex="1" parent="1">
          <mxGeometry x="412" y="2108" width="60" height="30" as="geometry" />
        </mxCell>
        <mxCell id="WjE6krQtYIAwwVwgJyOr-34" value="&lt;font style=&quot;font-size: 35px;&quot;&gt;m&lt;/font&gt;" style="text;html=1;align=center;verticalAlign=middle;whiteSpace=wrap;rounded=0;" vertex="1" parent="1">
          <mxGeometry x="665" y="2020" width="60" height="30" as="geometry" />
        </mxCell>
        <mxCell id="WjE6krQtYIAwwVwgJyOr-35" value="&lt;font style=&quot;font-size: 35px;&quot;&gt;m&lt;/font&gt;" style="text;html=1;align=center;verticalAlign=middle;whiteSpace=wrap;rounded=0;" vertex="1" parent="1">
          <mxGeometry x="1304" y="2016" width="60" height="30" as="geometry" />
        </mxCell>
        <mxCell id="WjE6krQtYIAwwVwgJyOr-36" value="&lt;font style=&quot;font-size: 35px;&quot;&gt;1&lt;/font&gt;" style="text;html=1;align=center;verticalAlign=middle;whiteSpace=wrap;rounded=0;" vertex="1" parent="1">
          <mxGeometry x="2142" y="2096" width="60" height="30" as="geometry" />
        </mxCell>
        <mxCell id="WjE6krQtYIAwwVwgJyOr-37" value="&lt;font style=&quot;font-size: 35px;&quot;&gt;m&lt;/font&gt;" style="text;html=1;align=center;verticalAlign=middle;whiteSpace=wrap;rounded=0;" vertex="1" parent="1">
          <mxGeometry x="2040" y="3303" width="60" height="30" as="geometry" />
        </mxCell>
        <mxCell id="WjE6krQtYIAwwVwgJyOr-38" value="&lt;font style=&quot;font-size: 35px;&quot;&gt;1&lt;/font&gt;" style="text;html=1;align=center;verticalAlign=middle;whiteSpace=wrap;rounded=0;" vertex="1" parent="1">
          <mxGeometry x="609" y="2120" width="60" height="30" as="geometry" />
        </mxCell>
        <mxCell id="WjE6krQtYIAwwVwgJyOr-39" value="&lt;span style=&quot;font-size: 35px;&quot;&gt;m&lt;/span&gt;" style="text;html=1;align=center;verticalAlign=middle;whiteSpace=wrap;rounded=0;" vertex="1" parent="1">
          <mxGeometry x="3449" y="3255" width="60" height="30" as="geometry" />
        </mxCell>
      </root>
    </mxGraphModel>
  </diagram>
</mxfile>
